<svg xmlns="http://www.w3.org/2000/svg" width="24" height="24" viewBox="0 0 24 24" fill="#ff0000">
  <path d="M23.498 6.186C23.2514 5.2573 22.6281 4.45527 21.756 3.94777C20.0214 3.07333 12 3.07333 12 3.07333C12 3.07333 3.97862 3.07333 2.24401 3.94777C1.37187 4.45527 0.748548 5.2573 0.502001 6.186C-0.113954 9.37036 -0.113954 13.9937 0.502001 17.1781C0.748548 18.1068 1.37187 18.9088 2.24401 19.4163C3.97862 20.2907 12 20.2907 12 20.2907C12 20.2907 20.0214 20.2907 21.756 19.4163C22.6281 18.9088 23.2514 18.1068 23.498 17.1781C24.114 13.9937 24.114 9.37036 23.498 6.186ZM9.54545 15.4285V7.93567L15.8182 11.682L9.54545 15.4285Z"/>
</svg> 